<?xml version="1.0" encoding="UTF-8" standalone="no"?>
<!-- Created with Inkscape (http://www.inkscape.org/) -->

<svg
   width="968.54626"
   height="351.60727"
   viewBox="0 0 256.26119 93.029426"
   version="1.1"
   id="svg1"
   inkscape:version="1.3.2 (091e20ef0f, 2023-11-25)"
   sodipodi:docname="Cesium-mark.svg"
   xmlns:inkscape="http://www.inkscape.org/namespaces/inkscape"
   xmlns:sodipodi="http://sodipodi.sourceforge.net/DTD/sodipodi-0.dtd"
   xmlns="http://www.w3.org/2000/svg"
   xmlns:svg="http://www.w3.org/2000/svg">
  <sodipodi:namedview
     id="namedview1"
     pagecolor="#505050"
     bordercolor="#eeeeee"
     borderopacity="1"
     inkscape:showpageshadow="0"
     inkscape:pageopacity="0"
     inkscape:pagecheckerboard="0"
     inkscape:deskcolor="#505050"
     inkscape:document-units="mm"
     inkscape:zoom="1.3745491"
     inkscape:cx="106.58041"
     inkscape:cy="179.69529"
     inkscape:window-width="2256"
     inkscape:window-height="1435"
     inkscape:window-x="0"
     inkscape:window-y="0"
     inkscape:window-maximized="1"
     inkscape:current-layer="layer1" />
  <defs
     id="defs1" />
  <g
     inkscape:label="Layer 1"
     inkscape:groupmode="layer"
     id="layer1"
     transform="translate(-6.2009566,-34.266662)">
    <path
       style="font-size:70.5556px;line-height:0.8;font-family:Righteous;-inkscape-font-specification:Righteous;fill:#ffffff;stroke-width:1.5;stroke-linecap:round"
       d="m 48.334503,121.16381 q -3.445098,2.96278 -7.717019,4.54753 -4.271922,1.58474 -8.853902,1.58474 -3.513999,0 -6.786842,-0.93017 -3.238392,-0.89573 -6.097823,-2.54937 -2.824981,-1.6881 -5.167647,-4.03077 -2.342667,-2.34267 -4.0307646,-5.16765 -1.653647,-2.85943 -2.5838234,-6.09782 -0.8957254,-3.27284 -0.8957254,-6.78684 0,-3.514002 0.8957254,-6.786844 0.9301764,-3.272843 2.5838234,-6.097824 1.6880976,-2.859431 4.0307646,-5.202097 2.342666,-2.342667 5.167647,-3.996314 2.859431,-1.688098 6.097823,-2.583823 3.272843,-0.930176 6.786842,-0.930176 4.58198,0 8.853902,1.584745 4.271921,1.550294 7.717019,4.547529 L 43.097954,90.8814 q -2.170412,-2.342666 -5.133196,-3.582902 -2.962784,-1.274686 -6.201176,-1.274686 -3.272843,0 -6.132274,1.240235 -2.859431,1.240236 -4.995392,3.376196 -2.13596,2.10151 -3.376195,4.995392 -1.240236,2.859431 -1.240236,6.097825 0,3.23839 1.240236,6.09782 1.240235,2.82498 3.376195,4.96094 2.135961,2.13596 4.995392,3.3762 2.859431,1.24023 6.132274,1.24023 3.238392,0 6.201176,-1.24023 2.962784,-1.27469 5.133196,-3.61735 z m 18.121213,-3.96186 q 0.551216,0.17225 1.102431,0.24115 0.551216,0.0345 1.102432,0.0345 1.378039,0 2.652725,-0.37897 1.274686,-0.37896 2.377117,-1.06798 1.136883,-0.72347 1.998157,-1.72254 0.895726,-1.03353 1.446941,-2.27377 l 6.890196,6.92465 q -1.309137,1.86035 -3.031686,3.34174 -1.688098,1.48139 -3.686255,2.51492 -1.963706,1.03353 -4.168568,1.5503 -2.170412,0.55121 -4.478627,0.55121 -3.892961,0 -7.338059,-1.44694 -3.410646,-1.44694 -5.99447,-4.03076 -2.549372,-2.58383 -4.030764,-6.13228 -1.481392,-3.5829 -1.481392,-7.85482 0,-4.37527 1.481392,-7.992626 1.481392,-3.617353 4.030764,-6.166725 2.583824,-2.549373 5.99447,-3.961863 3.445098,-1.41249 7.338059,-1.41249 2.308215,0 4.513078,0.551216 2.204862,0.551215 4.168568,1.584745 1.998157,1.033529 3.720706,2.549372 1.722549,1.481392 3.031686,3.341745 z m 4.823137,-19.395903 q -0.654569,-0.241157 -1.309137,-0.310059 -0.620118,-0.0689 -1.309137,-0.0689 -1.929255,0 -3.651804,0.723471 -1.688098,0.689019 -2.962784,1.998153 -1.240235,1.30914 -1.963706,3.16949 -0.72347,1.82591 -0.72347,4.13412 0,0.51677 0.03445,1.17133 0.0689,0.65457 0.172254,1.34359 0.137804,0.65457 0.310059,1.27469 0.172255,0.62012 0.447863,1.10243 z M 109.07158,126.2281 H 87.574166 v -9.37066 h 21.497414 q 0.96462,0 1.65364,-0.68902 0.68902,-0.68902 0.68902,-1.65365 0,-0.99908 -0.68902,-1.30914 -0.68902,-0.31005 -1.65364,-0.31005 h -9.784082 q -2.446019,0 -4.58198,-0.93018 -2.13596,-0.93018 -3.720705,-2.51492 -1.584745,-1.6192 -2.514922,-3.75516 -0.895725,-2.13596 -0.895725,-4.58198 0,-2.446019 0.895725,-4.581979 0.930177,-2.135961 2.514922,-3.720706 1.584745,-1.584745 3.720705,-2.48047 2.135961,-0.930177 4.58198,-0.930177 h 19.051392 v 9.370666 H 99.287498 q -0.964627,0 -1.653647,0.68902 -0.689019,0.689016 -0.689019,1.653646 0,0.99908 0.689019,1.72255 0.68902,0.68902 1.653647,0.68902 h 9.784082 q 2.41156,0 4.54753,0.82682 2.13596,0.79238 3.7207,2.23932 1.58475,1.44694 2.51492,3.47954 0.93018,2.03261 0.93018,4.44418 0,2.44602 -0.93018,4.58198 -0.93017,2.10151 -2.51492,3.72071 -1.58474,1.58474 -3.7207,2.51492 -2.13597,0.89572 -4.54753,0.89572 z m 27.80194,-46.922228 q 0,1.309137 -0.51676,2.446019 -0.48232,1.136882 -1.34359,1.998157 -0.86128,0.826823 -2.03261,1.343588 -1.13688,0.482314 -2.44602,0.482314 -1.30914,0 -2.48047,-0.482314 -1.13688,-0.516765 -1.99816,-1.343588 -0.82682,-0.861275 -1.34359,-1.998157 -0.48231,-1.136882 -0.48231,-2.446019 0,-1.274687 0.48231,-2.411569 0.51677,-1.171333 1.34359,-1.998157 0.86128,-0.861274 1.99816,-1.343588 1.17133,-0.516764 2.48047,-0.516764 1.30914,0 2.44602,0.516764 1.17133,0.482314 2.03261,1.343588 0.86127,0.826824 1.34359,1.998157 0.51676,1.136882 0.51676,2.411569 z m -1.6192,46.922228 h -9.47401 V 89.331106 h 9.47401 z m 34.27872,-4.30637 q -1.13688,1.03353 -2.44602,1.96371 -1.27468,0.89572 -2.68717,1.58474 -1.41249,0.65457 -2.92834,1.03353 -1.48139,0.41341 -3.03168,0.41341 -3.41065,0 -6.40789,-1.20578 -2.99723,-1.20579 -5.271,-3.41065 -2.23931,-2.23931 -3.54845,-5.4088 -1.27468,-3.20394 -1.27468,-7.1658 V 89.331106 h 9.37066 v 20.394984 q 0,1.86035 0.55122,3.34174 0.58567,1.44694 1.55029,2.44602 0.96463,0.99908 2.23932,1.51584 1.30913,0.51677 2.79053,0.51677 1.44694,0 2.72162,-0.65457 1.30914,-0.68902 2.27377,-1.79145 0.96463,-1.10243 1.51584,-2.48047 0.55122,-1.41249 0.55122,-2.89388 V 89.331106 h 9.40511 V 126.2281 h -2.27376 z m 59.46239,4.30637 h -9.37067 v -23.42666 q 0,-0.96463 -0.37896,-1.8259 -0.34451,-0.86128 -0.99908,-1.515846 -0.65456,-0.654569 -1.51584,-0.999079 -0.86127,-0.37896 -1.8259,-0.37896 -0.96463,0 -1.8259,0.37896 -0.82683,0.34451 -1.48139,0.999079 -0.62012,0.654566 -0.99908,1.515846 -0.34451,0.86127 -0.34451,1.8259 v 23.42666 h -9.40512 v -23.42666 q 0,-0.96463 -0.37896,-1.8259 -0.34451,-0.86128 -0.99908,-1.515846 -0.65457,-0.654569 -1.51584,-0.999079 -0.86128,-0.37896 -1.8259,-0.37896 -0.96463,0 -1.82591,0.37896 -0.82682,0.34451 -1.48139,0.999079 -0.62011,0.654566 -0.99908,1.515846 -0.34451,0.86127 -0.34451,1.8259 V 126.2281 H 182.0732 V 89.331106 h 2.27376 l 2.54937,2.82498 q 1.96371,-1.653647 4.30638,-2.549372 2.37711,-0.930176 4.92649,-0.930176 2.58382,0 5.02984,0.964627 2.48047,0.964627 4.34082,3.341745 0.86128,-1.171333 1.96371,-1.998157 1.10243,-0.826823 2.30821,-1.343588 1.24024,-0.516765 2.54938,-0.723471 1.30913,-0.241156 2.58382,-0.241156 2.92833,0 5.47771,1.102431 2.58382,1.102431 4.47862,3.031686 1.92926,1.894804 3.03169,4.478627 1.10243,2.583823 1.10243,5.512158 z"
       id="text1"
       aria-label="Cesium" />
    <g
       id="g2"
       transform="matrix(0.71428571,0,0,0.71428571,189.0812,10.885712)">
      <circle
         style="fill:#ffffff;stroke:#ffffff;stroke-width:10;stroke-linecap:round;stroke-dasharray:none"
         id="path2"
         cx="67.73333"
         cy="67.73333"
         r="30" />
      <g
         id="g1"
         transform="matrix(0.44291338,0,0,0.44291338,37.733335,37.733335)">
        <ellipse
           style="fill:none;fill-opacity:1;stroke:#078c06;stroke-width:10;stroke-dasharray:none;stroke-opacity:1"
           id="path1"
           cx="67.73333"
           cy="67.73333"
           rx="62.733334"
           ry="62.733326" />
        <path
           style="fill:none;fill-opacity:1;stroke:#078c06;stroke-width:9.99994;stroke-linecap:round;stroke-dasharray:none;stroke-opacity:1"
           id="ellipse2"
           sodipodi:type="arc"
           sodipodi:cx="67.73333"
           sodipodi:cy="67.73333"
           sodipodi:rx="43.947937"
           sodipodi:ry="43.947933"
           sodipodi:start="0.52359878"
           sodipodi:end="5.7595865"
           sodipodi:arc-type="arc"
           d="M 105.79336,89.707297 A 43.947937,43.947933 0 0 1 56.358767,110.18377 43.947937,43.947933 0 0 1 23.785393,67.73333 43.947937,43.947933 0 0 1 56.358766,25.282886 43.947937,43.947933 0 0 1 105.79336,45.759362"
           sodipodi:open="true" />
        <g
           id="g4"
           transform="matrix(-1.1429822,0,0,1.1283767,147.93575,-3.0534929)"
           style="stroke-width:0.880548">
          <path
             style="fill:none;fill-opacity:1;stroke:#078c06;stroke-width:8.80548;stroke-dasharray:none;stroke-opacity:1"
             id="path3"
             sodipodi:type="arc"
             sodipodi:cx="67.73333"
             sodipodi:cy="43.25938"
             sodipodi:rx="19.473959"
             sodipodi:ry="19.473959"
             sodipodi:start="4.712389"
             sodipodi:end="1.5707963"
             sodipodi:open="true"
             sodipodi:arc-type="arc"
             d="M 67.73333,23.785421 A 19.473959,19.473959 0 0 1 87.207289,43.25938 19.473959,19.473959 0 0 1 67.73333,62.733339" />
          <path
             style="fill:none;fill-opacity:1;stroke:#078c06;stroke-width:8.80548;stroke-dasharray:none;stroke-opacity:1"
             id="path4"
             sodipodi:type="arc"
             sodipodi:cx="-67.73333"
             sodipodi:cy="-82.207298"
             sodipodi:rx="19.473959"
             sodipodi:ry="19.473959"
             sodipodi:start="4.712389"
             sodipodi:end="1.5707963"
             sodipodi:open="true"
             sodipodi:arc-type="arc"
             d="m -67.73333,-101.68126 a 19.473959,19.473959 0 0 1 19.473959,19.473962 19.473959,19.473959 0 0 1 -19.473959,19.473959"
             transform="scale(-1)" />
        </g>
      </g>
    </g>
  </g>
</svg>
