<?xml version="1.0" encoding="UTF-8" standalone="no"?>
<svg
   id="visual"
   viewBox="0 -260.73959 900 260.73959"
   width="900"
   height="260.73959"
   preserveAspectRatio="none"
   version="1.1"
   sodipodi:docname="layered-waves-haikei.svg"
   inkscape:version="1.3.2 (091e20ef0f, 2023-11-25)"
   xmlns:inkscape="http://www.inkscape.org/namespaces/inkscape"
   xmlns:sodipodi="http://sodipodi.sourceforge.net/DTD/sodipodi-0.dtd"
   xmlns:xlink="http://www.w3.org/1999/xlink"
   xmlns="http://www.w3.org/2000/svg"
   xmlns:svg="http://www.w3.org/2000/svg">
  <defs
     id="defs1">
    <linearGradient
       id="linearGradient1"
       inkscape:collect="always">
      <stop
         style="stop-color:#992d2d;stop-opacity:1;"
         offset="0"
         id="stop1" />
      <stop
         style="stop-color:#2E7599;stop-opacity:1;"
         offset=".25"
         id="stop15" />
      <stop
         style="stop-color:#2d9c4c;stop-opacity:1;"
         offset=".5"
         id="stop2" />
      <stop
         style="stop-color:#2E7599;stop-opacity:1;"
         offset=".75"
         id="stop2" />
      <stop
         style="stop-color:#992d2d;stop-opacity:1;"
         offset="1"
         id="stop15" />
    </linearGradient>
    <inkscape:path-effect
       effect="fillet_chamfer"
       id="path-effect1"
       is_visible="true"
       lpeversion="1"
       nodesatellites_param="F,0,0,1,0,20.615822,0,1 @ F,0,0,1,0,0,0,1 @ F,0,1,1,0,20.615822,0,1 @ F,0,0,1,0,0,0,1"
       radius="0"
       unit="px"
       method="auto"
       mode="F"
       chamfer_steps="1"
       flexible="false"
       use_knot_distance="true"
       apply_no_radius="true"
       apply_with_radius="true"
       only_selected="false"
       hide_knots="false" />
    <linearGradient
       inkscape:collect="always"
       xlink:href="#linearGradient1"
       id="linearGradient2"
       x1="0%"
       y1="0%"
       x2="100%"
       y2="0%"
       gradientUnits="userSpaceOnUse" />
  </defs>
  <sodipodi:namedview
     id="namedview12"
     pagecolor="#505050"
     bordercolor="#eeeeee"
     borderopacity="1"
     inkscape:showpageshadow="0"
     inkscape:pageopacity="0"
     inkscape:pagecheckerboard="0"
     inkscape:deskcolor="#505050"
     inkscape:zoom="1.4977778"
     inkscape:cx="450"
     inkscape:cy="-40.727003"
     inkscape:window-width="2256"
     inkscape:window-height="1435"
     inkscape:window-x="0"
     inkscape:window-y="0"
     inkscape:window-maximized="1"
     inkscape:current-layer="visual" />
  <path
     d="m 0,38.739607 16.7,10.5 c 16.6,10.5 50,31.5 83.3,40 33.3,8.5 66.7,4.5 100,-11.8 33.3,-16.4 66.7,-45 100,-61.7 33.3,-16.6999997 66.7,-21.2999997 100,-7.9999997 33.3,13.2999997 66.7,44.6999997 100,57.7999997 33.3,13.2 66.7,8.2 100,-2.5 33.3,-10.6 66.7,-27 100,-28.5 33.3,-1.5 66.7,11.9 100,19.9 33.3,8 66.7,10.6 83.3,12 l 16.7,1.3 V 260.73961 h -16.7 c -16.6,0 -50,0 -83.3,0 -33.3,0 -66.7,0 -100,0 -33.3,0 -66.7,0 -100,0 -33.3,0 -66.7,0 -100,0 -33.3,0 -66.7,0 -100,0 -33.3,0 -66.7,0 -100,0 -33.3,0 -66.7,0 -100,0 -33.3,0 -66.7,0 -100,0 -33.3,0 -66.7,0 -83.3,0 H 0 Z"
     fill="url(#linearGradient1)"
     style="mix-blend-mode: multiply"
     transform="scale(1, -1)"
     fill-opacity=".12"
     id="path1" />
  <path
     d="m 0,35.739607 16.7,4.7 c 16.6,4.6 50,14 83.3,22 33.3,8 66.7,14.6 100,21 33.3,6.3 66.7,12.3 100,8.3 33.3,-4 66.7,-18 100,-20 33.3,-2 66.7,8 100,4.8 33.3,-3.1 66.7,-19.5 100,-26.5 33.3,-7 66.7,-4.6 100,-2.8 33.3,1.8 66.7,3.2 100,11.7 33.3,8.5 66.7,24.1 83.3,32 l 16.7,7.8 V 260.73961 h -16.7 c -16.6,0 -50,0 -83.3,0 -33.3,0 -66.7,0 -100,0 -33.3,0 -66.7,0 -100,0 -33.3,0 -66.7,0 -100,0 -33.3,0 -66.7,0 -100,0 -33.3,0 -66.7,0 -100,0 -33.3,0 -66.7,0 -100,0 -33.3,0 -66.7,0 -100,0 -33.3,0 -66.7,0 -83.3,0 H 0 Z"
     fill="url(#linearGradient1)"
     style="mix-blend-mode: multiply"
     transform="scale(1, -1)"
     fill-opacity=".20"
     id="path2" />
  <path
     d="m 0,50.739607 16.7,3.5 c 16.6,3.5 50,10.5 83.3,19.7 33.3,9.1 66.7,20.5 100,25.1 33.3,4.700003 66.7,2.700003 100,-6.8 33.3,-9.5 66.7,-26.5 100,-27 33.3,-0.5 66.7,15.5 100,20.3 33.3,4.9 66.7,-1.5 100,-4.3 33.3,-2.8 66.7,-2.2 100,-1.5 33.3,0.7 66.7,1.3 100,3.2 33.3,1.8 66.7,4.8 83.3,6.3 l 16.7,1.5 V 260.73961 h -16.7 c -16.6,0 -50,0 -83.3,0 -33.3,0 -66.7,0 -100,0 -33.3,0 -66.7,0 -100,0 -33.3,0 -66.7,0 -100,0 -33.3,0 -66.7,0 -100,0 -33.3,0 -66.7,0 -100,0 -33.3,0 -66.7,0 -100,0 -33.3,0 -66.7,0 -100,0 -33.3,0 -66.7,0 -83.3,0 H 0 Z"
     fill="url(#linearGradient1)"
     style="mix-blend-mode: multiply"
     transform="scale(1, -1)"

     fill-opacity=".28"
     id="path3" />
  <path
     d="m 0,91.739607 16.7,-3 c 16.6,-3 50,-9 83.3,-4.3 33.3,4.6 66.7,20.000003 100,31.600003 33.3,11.7 66.7,19.7 100,14 33.3,-5.6 66.7,-25 100,-26.5 33.3,-1.5 66.7,14.9 100,21.2 33.3,6.3 66.7,2.7 100,-3.3 33.3,-6 66.7,-14.4 100,-24.000003 33.3,-9.7 66.7,-20.7 100,-27.4 33.3,-6.6 66.7,-9 83.3,-10.1 l 16.7,-1.2 V 260.73961 h -16.7 c -16.6,0 -50,0 -83.3,0 -33.3,0 -66.7,0 -100,0 -33.3,0 -66.7,0 -100,0 -33.3,0 -66.7,0 -100,0 -33.3,0 -66.7,0 -100,0 -33.3,0 -66.7,0 -100,0 -33.3,0 -66.7,0 -100,0 -33.3,0 -66.7,0 -100,0 -33.3,0 -66.7,0 -83.3,0 H 0 Z"
     fill="url(#linearGradient1)"
     style="mix-blend-mode: multiply"
     transform="scale(1, -1)"

     fill-opacity=".36"
     id="path4" />
  <path
     d="m 0,120.73961 16.7,2.8 c 16.6,2.9 50,8.5 83.3,9.7 33.3,1.2 66.7,-2.2 100,-10.3 33.3,-8.2 66.7,-21.2 100,-28.000003 33.3,-6.9 66.7,-7.5 100,-10.4 33.3,-2.8 66.7,-7.8 100,-3 33.3,4.9 66.7,19.500003 100,22.200003 33.3,2.7 66.7,-6.700003 100,-10.200003 33.3,-3.5 66.7,-1.1 100,-1.1 33.3,0 66.7,-2.4 83.3,-3.5 l 16.7,-1.2 V 260.73961 h -16.7 c -16.6,0 -50,0 -83.3,0 -33.3,0 -66.7,0 -100,0 -33.3,0 -66.7,0 -100,0 -33.3,0 -66.7,0 -100,0 -33.3,0 -66.7,0 -100,0 -33.3,0 -66.7,0 -100,0 -33.3,0 -66.7,0 -100,0 -33.3,0 -66.7,0 -100,0 -33.3,0 -66.7,0 -83.3,0 H 0 Z"
     fill="url(#linearGradient1)"
     style="mix-blend-mode: multiply"
     transform="scale(1, -1)"

     fill-opacity=".44"
     id="path5" />
  <path
     d="m 0,123.73961 16.7,-3.5 c 16.6,-3.5 50,-10.5 83.3,-4.7 33.3,5.9 66.7,24.5 100,30.7 33.3,6.2 66.7,-0.2 100,-7.8 33.3,-7.7 66.7,-16.7 100,-23.5 33.3,-6.9 66.7,-11.5 100,-2.9 33.3,8.7 66.7,30.7 100,34 33.3,3.4 66.7,-12 100,-20.5 33.3,-8.5 66.7,-10.1 100,-5.6 33.3,4.5 66.7,15.1 83.3,20.5 l 16.7,5.3 v 115 h -16.7 c -16.6,0 -50,0 -83.3,0 -33.3,0 -66.7,0 -100,0 -33.3,0 -66.7,0 -100,0 -33.3,0 -66.7,0 -100,0 -33.3,0 -66.7,0 -100,0 -33.3,0 -66.7,0 -100,0 -33.3,0 -66.7,0 -100,0 -33.3,0 -66.7,0 -100,0 -33.3,0 -66.7,0 -83.3,0 H 0 Z"
     fill="url(#linearGradient1)"
     style="mix-blend-mode: multiply"
     transform="scale(1, -1)"

     fill-opacity=".52"
     id="path6" />
  <path
     d="m 0,135.73961 16.7,3 c 16.6,3 50,9 83.3,13.5 33.3,4.5 66.7,7.5 100,10.7 33.3,3.1 66.7,6.5 100,2.8 33.3,-3.7 66.7,-14.3 100,-12.3 33.3,2 66.7,16.6 100,15.6 33.3,-1 66.7,-17.6 100,-23.8 33.3,-6.2 66.7,-1.8 100,-1 33.3,0.8 66.7,-1.8 100,3.7 33.3,5.5 66.7,19.1 83.3,26 l 16.7,6.8 v 80 h -16.7 c -16.6,0 -50,0 -83.3,0 -33.3,0 -66.7,0 -100,0 -33.3,0 -66.7,0 -100,0 -33.3,0 -66.7,0 -100,0 -33.3,0 -66.7,0 -100,0 -33.3,0 -66.7,0 -100,0 -33.3,0 -66.7,0 -100,0 -33.3,0 -66.7,0 -100,0 -33.3,0 -66.7,0 -83.3,0 H 0 Z"
     fill="url(#linearGradient1)"
     style="mix-blend-mode: multiply"
     transform="scale(1, -1)"

     fill-opacity=".60"
     id="path7" />
  <path
     d="m 0,179.73961 16.7,-0.5 c 16.6,-0.5 50,-1.5 83.3,-1.3 33.3,0.1 66.7,1.5 100,5 33.3,3.5 66.7,9.1 100,4.6 33.3,-4.5 66.7,-19.1 100,-26.8 33.3,-7.7 66.7,-8.3 100,-4.8 33.3,3.5 66.7,11.1 100,19 33.3,7.8 66.7,15.8 100,15.6 33.3,-0.1 66.7,-8.5 100,-14.1 33.3,-5.7 66.7,-8.7 83.3,-10.2 l 16.7,-1.5 v 96 h -16.7 c -16.6,0 -50,0 -83.3,0 -33.3,0 -66.7,0 -100,0 -33.3,0 -66.7,0 -100,0 -33.3,0 -66.7,0 -100,0 -33.3,0 -66.7,0 -100,0 -33.3,0 -66.7,0 -100,0 -33.3,0 -66.7,0 -100,0 -33.3,0 -66.7,0 -100,0 -33.3,0 -66.7,0 -83.3,0 H 0 Z"
     fill="url(#linearGradient1)"
     style="mix-blend-mode: multiply"
     transform="scale(1, -1)"

     fill-opacity=".68"
     id="path8" />
  <path
     d="m 0,178.73961 16.7,2.7 c 16.6,2.6 50,8 83.3,5.3 33.3,-2.7 66.7,-13.3 100,-16.2 33.3,-2.8 66.7,2.2 100,3 33.3,0.9 66.7,-2.5 100,-5.1 33.3,-2.7 66.7,-4.7 100,-3.5 33.3,1.1 66.7,5.5 100,5.6 33.3,0.2 66.7,-3.8 100,-6.5 33.3,-2.6 66.7,-4 100,0.9 33.3,4.8 66.7,15.8 83.3,21.3 l 16.7,5.5 v 69 h -16.7 c -16.6,0 -50,0 -83.3,0 -33.3,0 -66.7,0 -100,0 -33.3,0 -66.7,0 -100,0 -33.3,0 -66.7,0 -100,0 -33.3,0 -66.7,0 -100,0 -33.3,0 -66.7,0 -100,0 -33.3,0 -66.7,0 -100,0 -33.3,0 -66.7,0 -100,0 -33.3,0 -66.7,0 -83.3,0 H 0 Z"
     fill="url(#linearGradient1)"
     style="mix-blend-mode: multiply"
     transform="scale(1, -1)"

     fill-opacity=".76"
     id="path9" />
  <path
     d="m 0,189.73961 16.7,5.3 c 16.6,5.4 50,16 83.3,17.2 33.3,1.2 66.7,-7.2 100,-8.2 33.3,-1 66.7,5.4 100,3.5 33.3,-1.8 66.7,-11.8 100,-11.8 33.3,0 66.7,10 100,10.7 33.3,0.6 66.7,-8 100,-7.5 33.3,0.5 66.7,10.1 100,10.8 33.3,0.7 66.7,-7.7 100,-13.8 33.3,-6.2 66.7,-10.2 83.3,-12.2 l 16.7,-2 v 79 h -16.7 c -16.6,0 -50,0 -83.3,0 -33.3,0 -66.7,0 -100,0 -33.3,0 -66.7,0 -100,0 -33.3,0 -66.7,0 -100,0 -33.3,0 -66.7,0 -100,0 -33.3,0 -66.7,0 -100,0 -33.3,0 -66.7,0 -100,0 -33.3,0 -66.7,0 -100,0 -33.3,0 -66.7,0 -83.3,0 H 0 Z"
     fill="url(#linearGradient1)"
     style="mix-blend-mode: multiply"
     transform="scale(1, -1)"

     fill-opacity=".84"
     id="path10" />
  <path
     d="m 0,233.73961 16.7,-4.3 c 16.6,-4.4 50,-13 83.3,-13.4 33.3,-0.3 66.7,7.7 100,10.7 33.3,3 66.7,1 100,-4.3 33.3,-5.4 66.7,-14 100,-15.4 33.3,-1.3 66.7,4.7 100,8.5 33.3,3.9 66.7,5.5 100,5.5 33.3,0 66.7,-1.6 100,-3.1 33.3,-1.5 66.7,-2.9 100,-0.9 33.3,2 66.7,7.4 83.3,10 l 16.7,2.7 v 31 h -16.7 c -16.6,0 -50,0 -83.3,0 -33.3,0 -66.7,0 -100,0 -33.3,0 -66.7,0 -100,0 -33.3,0 -66.7,0 -100,0 -33.3,0 -66.7,0 -100,0 -33.3,0 -66.7,0 -100,0 -33.3,0 -66.7,0 -100,0 -33.3,0 -66.7,0 -100,0 -33.3,0 -66.7,0 -83.3,0 H 0 Z"
     fill="url(#linearGradient1)"
     style="mix-blend-mode: multiply"
     transform="scale(1, -1)"

     fill-opacity=".92"
     id="path11" />
  <path
     d="m 0,250.73961 16.7,-1.7 c 16.6,-1.6 50,-5 83.3,-9.8 33.3,-4.8 66.7,-11.2 100,-13.5 33.3,-2.3 66.7,-0.7 100,0.2 33.3,0.8 66.7,0.8 100,0.3 33.3,-0.5 66.7,-1.5 100,0.2 33.3,1.6 66.7,6 100,6.5 33.3,0.5 66.7,-2.9 100,-3.2 33.3,-0.3 66.7,2.3 100,5.7 33.3,3.3 66.7,7.3 83.3,9.3 l 16.7,2 v 14 h -16.7 c -16.6,0 -50,0 -83.3,0 -33.3,0 -66.7,0 -100,0 -33.3,0 -66.7,0 -100,0 -33.3,0 -66.7,0 -100,0 -33.3,0 -66.7,0 -100,0 -33.3,0 -66.7,0 -100,0 -33.3,0 -66.7,0 -100,0 -33.3,0 -66.7,0 -100,0 -33.3,0 -66.7,0 -83.3,0 H 0 Z"
     fill="url(#linearGradient1)"
     style="mix-blend-mode: multiply"
     transform="scale(1, -1)"

     fill-opacity="1"
     id="path12" />
</svg>
