<?xml version="1.0" encoding="utf-8"?>
<svg xmlns="http://www.w3.org/2000/svg" viewBox="0 0 500 500">
    <path style="fill: #000000; fill-opacity:1; stroke-width:0;"
          d="M 404.339 304.735 C 403.579 311.834 406.67 318.798 412.445 322.997 C 418.219 327.196 425.797 327.99 432.317 325.079 C 438.836 322.168 443.303 315.995 444.031 308.892 C 444.031 308.892 443.899 310.183 444.031 308.892 C 444.031 308.892 452.086 276.705 452.742 259.063 C 453.401 241.35 451.532 222.71 447.687 206.15 C 439.987 172.994 422.618 140.464 400.293 115.827 C 377.977 91.2 347.194 70.591 314.543 59.602 C 282.049 48.666 242.844 46.056 204.506 53.653 C 174.251 60.357 143.905 75.848 120.363 95.711 C 96.844 115.554 76.406 142.517 63.234 169.888 C 60.309 176.083 60.759 183.345 64.427 189.131 C 68.095 194.918 74.469 198.425 81.32 198.425 L 156.03 198.425 L 185.355 269.346 C 188.482 276.91 195.902 281.804 204.086 281.702 C 212.27 281.601 219.566 276.522 222.504 268.883 L 254.533 185.604 C 251.485 193.529 243.765 198.666 235.278 198.416 L 249.346 198.83 L 276.528 267.467 C 279.537 275.065 286.866 280.068 295.038 280.103 C 303.21 280.138 310.581 275.197 313.654 267.626 L 341.505 199.017 L 350.38 198.878 L 311.583 304.452 C 307.773 314.82 313.09 326.314 323.457 330.124 C 333.825 333.934 345.319 328.617 349.129 318.25 L 397.976 185.325 C 400.249 179.138 399.328 172.228 395.514 166.852 C 391.7 161.477 385.481 158.326 378.891 158.428 L 327.642 159.228 C 319.616 159.354 312.442 164.266 309.423 171.703 L 295.352 206.365 L 281.688 171.862 C 278.746 164.434 271.667 159.47 263.681 159.235 L 236.454 158.434 C 227.967 158.184 220.247 163.321 217.199 171.246 L 203.165 207.736 L 187.885 170.783 C 184.793 163.303 177.497 158.425 169.403 158.425 L 115.992 158.425 C 124.482 146.624 125.896 143.378 146.157 126.283 C 166.396 109.207 187.627 97.647 212.678 92.809 C 245.405 85.576 273.95 88.144 301.784 97.512 C 329.463 106.828 351.587 121.647 370.653 142.687 C 389.71 163.718 402.197 187.094 408.723 215.198 C 411.99 229.267 413.327 242.595 412.77 257.577 C 412.491 265.091 411.773 272.017 410.448 279.662 C 409.119 287.33 404.339 304.735 404.339 304.735 C 404.472 304.089 404.339 304.735 404.339 304.735 Z"/>
    <path d="M 413.923 306.168 C 413.543 309.717 415.088 313.2 417.976 315.299 C 420.863 317.399 424.652 317.796 427.912 316.34 C 431.172 314.884 433.405 311.798 433.769 308.247 C 433.769 308.247 433.703 308.892 433.769 308.247 C 433.769 308.247 441.848 275.412 442.48 258.417 C 443.113 241.387 441.378 224.075 437.677 208.138 C 430.271 176.245 414.122 146.003 392.614 122.268 C 349.736 74.95 280.188 48.575 206.28 63.168 C 148.673 75.868 97.323 121.189 72.008 173.882 C 70.546 176.98 70.771 180.611 72.604 183.504 C 74.438 186.398 77.625 188.151 81.051 188.151 L 162.448 188.151 L 194.327 265.251 C 195.89 269.033 199.601 271.48 203.693 271.429 C 207.785 271.378 211.432 268.839 212.901 265.02 L 242.387 188.355 L 255.95 188.754 L 285.557 263.511 C 287.061 267.31 290.725 269.811 294.811 269.829 C 298.897 269.846 302.583 267.376 304.12 263.59 L 334.461 188.847 L 364.522 188.378 L 320.701 307.628 C 318.796 312.812 321.454 318.558 326.638 320.463 C 331.822 322.368 337.568 319.71 339.473 314.526 L 388.32 181.601 C 389.457 178.508 388.997 175.053 387.089 172.365 C 385.182 169.677 382.073 168.102 378.778 168.153 L 327.529 168.953 C 323.516 169.016 319.929 171.472 318.419 175.191 L 294.969 232.96 L 272.121 175.27 C 270.651 171.556 267.111 169.074 263.118 168.956 L 235.891 168.155 C 231.647 168.031 227.787 170.599 226.263 174.561 L 203.232 234.446 L 178.375 174.33 C 176.829 170.59 173.181 168.151 169.134 168.151 L 97.447 168.151 C 121.798 125.403 157.361 93.13 210.366 82.746 C 278.589 67.677 337.908 91.682 377.794 135.698 C 397.668 157.63 411.376 183.295 418.195 212.662 C 421.607 227.353 423.076 242.01 422.494 257.674 C 422.202 265.518 421.415 273.114 420.032 281.095 C 418.647 289.088 413.923 306.168 413.923 306.168 C 413.99 305.845 413.923 306.168 413.923 306.168 Z"
          style="fill: #2d9c4c; fill-opacity:1; stroke-width:0;"/>
    <path style="fill: #000000; fill-opacity:1; stroke-width:0;"
          d="M 90.402 220.883 C 90.402 209.837 81.448 200.882 70.403 200.882 C 59.357 200.882 50.402 209.836 50.402 220.881 C 50.402 220.881 50.444 219.968 50.402 220.881 C 50.402 220.881 47.679 239.278 47.679 249.624 C 47.678 259.998 48.725 271.084 50.543 281.107 C 54.174 301.117 61.713 321.734 71.122 340.531 C 88.4 373.828 114.439 401.94 142.859 419.906 C 171.374 437.931 206.306 448.85 239.154 450.899 C 272.008 452.948 307.979 446.435 338.358 432.002 C 368.636 417.616 397.719 392.74 418.649 361.56 C 422.66 355.434 423.002 347.605 419.541 341.152 C 416.079 334.698 409.368 330.653 402.045 330.605 L 291.043 329.889 L 268.167 276.291 C 265.022 268.923 257.783 264.142 249.772 264.142 C 241.761 264.142 234.522 268.922 231.378 276.291 L 208.536 329.805 L 199.551 329.804 L 155.582 213.034 C 151.69 202.697 140.154 197.473 129.817 201.365 C 119.48 205.257 114.256 216.793 118.148 227.13 L 166.994 356.852 C 169.928 364.644 177.384 369.804 185.71 369.804 L 221.744 369.805 C 229.756 369.805 236.994 365.025 240.139 357.656 L 249.772 335.089 L 259.403 357.655 C 262.53 364.98 269.705 369.752 277.669 369.804 L 359.857 370.334 C 348.355 380.965 346.948 383.635 321.192 395.872 C 295.536 408.061 269.728 412.728 241.643 410.976 C 213.552 409.224 188.387 401.364 164.232 386.095 C 139.983 370.765 120.78 351.068 106.83 322.505 C 98.373 305.912 92.935 290.687 89.901 273.965 C 88.387 265.621 87.678 258.119 87.679 249.626 C 87.679 241.106 90.402 220.883 90.402 220.883 C 90.36 221.796 90.402 220.883 90.402 220.883 Z"/>
    <path d="M 79.797 221.527 C 79.678 217.967 77.657 214.746 74.504 213.089 C 71.351 211.432 67.552 211.595 64.552 213.516 C 61.553 215.437 59.816 218.82 60.002 222.376 C 60.002 222.376 59.922 221.531 60.002 222.376 C 60.002 222.376 56.338 259.831 59.822 279.03 C 63.304 298.218 70.317 317.487 79.488 335.734 C 112.704 399.685 176.081 436.69 239.215 440.627 C 302.36 444.565 369.507 415.641 409.721 355.792 C 411.727 352.728 411.898 348.814 410.167 345.587 C 408.437 342.361 405.081 340.338 401.42 340.314 L 283.86 339.556 L 258.408 279.925 C 256.836 276.241 253.217 273.851 249.211 273.851 C 245.205 273.851 241.586 276.241 240.014 279.925 L 214.58 339.514 L 192.07 339.513 L 145.663 216.267 C 143.716 211.099 137.949 208.486 132.78 210.432 C 127.612 212.379 124.999 218.146 126.945 223.315 L 175.791 353.037 C 177.259 356.933 180.986 359.513 185.15 359.513 L 221.184 359.514 C 225.189 359.514 228.809 357.124 230.381 353.44 L 249.211 309.325 L 268.04 353.439 C 269.603 357.101 273.19 359.487 277.172 359.513 L 382.04 360.19 C 346.057 405.291 299.192 424.329 240.46 420.666 C 181.717 417.002 126.582 386.489 97.342 326.72 C 88.647 309.577 82.684 293.004 79.5 275.459 C 77.91 266.696 77.117 258.297 77.118 249.334 C 77.118 244.849 77.316 240.566 77.744 236.013 C 78.172 231.454 79.797 221.527 79.797 221.527 C 79.77 221.757 79.797 221.527 79.797 221.527 Z"
          style="fill: #992d2d;fill-opacity:1;stroke-width:0;"/>
</svg>